<?xml version="1.0" encoding="UTF-8"?>
<!DOCTYPE svg PUBLIC "-//W3C//DTD SVG 1.1//EN" "http://www.w3.org/Graphics/SVG/1.1/DTD/svg11.dtd">
<!-- Creator: CorelDRAW -->
<svg xmlns="http://www.w3.org/2000/svg" xml:space="preserve" width="366px" height="56px" version="1.1" style="shape-rendering:geometricPrecision; text-rendering:geometricPrecision; image-rendering:optimizeQuality; fill-rule:evenodd; clip-rule:evenodd"
viewBox="0 0 11.8 1.82"
 xmlns:xlink="http://www.w3.org/1999/xlink"
 xmlns:xodm="http://www.corel.com/coreldraw/odm/2003">
 <defs>
  <style type="text/css">
   <![CDATA[
    .fil0 {fill:#362623}
    .fil1 {fill:#B65B51}
   ]]>
  </style>
 </defs>
 <g id="Layer_x0020_1">
  <metadata id="CorelCorpID_0Corel-Layer"/>
  <g id="_2354461913104">
   <path class="fil0" d="M5.89 0.3c0.12,0.12 0.23,0.26 0.33,0.4 1.12,-0.32 2.35,-0.51 3.51,-0.34 0.69,0.1 1.37,0.26 2.07,0.35 -0.75,-0.2 -1.5,-0.39 -2.26,-0.54 -0.59,-0.11 -1.17,-0.19 -1.77,-0.17 -0.19,0.01 -0.38,0.03 -0.57,0.05 -0.44,0.05 -0.88,0.14 -1.31,0.25z"/>
   <path class="fil1" d="M0 0.25c0.87,0.09 1.67,0.38 2.42,0.85 0.24,0.16 0.47,0.34 0.7,0.52 0.05,0.03 0.27,0.21 0.33,0.19 0.04,0 0.19,-0.08 0.23,-0.09 0.17,-0.09 0.35,-0.17 0.52,-0.25 0.55,-0.25 1.11,-0.47 1.69,-0.66 -0.1,-0.15 -0.2,-0.3 -0.31,-0.44 -0.79,0.22 -1.56,0.49 -2.33,0.77l-0.01 0.01 -0.01 -0.01c-0.94,-0.7 -2.06,-0.95 -3.23,-0.89z"/>
  </g>
 </g>
</svg>
