<?xml version="1.0" encoding="UTF-8"?>
<!DOCTYPE svg PUBLIC "-//W3C//DTD SVG 1.1//EN" "http://www.w3.org/Graphics/SVG/1.1/DTD/svg11.dtd">
<!-- Creator: CorelDRAW -->
<svg xmlns="http://www.w3.org/2000/svg" xml:space="preserve" width="7207px" height="2662px" version="1.1" style="shape-rendering:geometricPrecision; text-rendering:geometricPrecision; image-rendering:optimizeQuality; fill-rule:evenodd; clip-rule:evenodd"
viewBox="0 0 3557.55 1314.32"
 xmlns:xlink="http://www.w3.org/1999/xlink"
 xmlns:xodm="http://www.corel.com/coreldraw/odm/2003">
 <defs>
  <style type="text/css">
   <![CDATA[
    .fil1 {fill:#FEFEFE}
    .fil0 {fill:#FEFEFE;fill-rule:nonzero}
   ]]>
  </style>
 </defs>
 <g id="Layer_x0020_1">
  <metadata id="CorelCorpID_0Corel-Layer"/>
  <g id="_1369189588464">
   <g>
    <path class="fil0" d="M3506.59 1087.17c0.22,-1.16 0.33,-2.21 0.43,-3.36 0.12,-1.16 0.23,-2.21 0.23,-3.07 0,-1.73 -0.23,-3.36 -0.66,-4.99 -0.44,-1.53 -1.09,-3.07 -1.95,-4.61l-188.21 -308.76c-0.53,-1.06 -1.62,-2.88 -3.14,-5.27 -10.22,-16.89 -18.37,-31.96 -24.34,-45.3 0.86,8.25 1.51,16.31 1.96,24.28 0.42,7.97 0.65,17.56 0.65,28.59l0 272.4c0,11.8 1.4,21.49 4.34,28.98 2.83,7.48 7.5,14.59 13.91,21.11l-57.59 0c6.63,-6.52 11.3,-13.63 14.12,-21.11 2.94,-7.49 4.35,-17.18 4.35,-28.98l0 -320.75c0,-1.73 -1.52,-5.09 -4.56,-10.27 -3.04,-5.18 -7.17,-11.32 -12.4,-18.42l49.67 0c-0.21,1.14 -0.33,2.11 -0.44,3.06 -0.1,0.97 -0.22,1.83 -0.22,2.6 0,1.82 0.33,3.74 0.87,5.56 0.44,1.92 1.09,3.45 1.74,4.8l188.2 308.76c0.65,0.87 1.51,2.5 2.82,4.7 10.44,17.08 18.7,32.34 24.67,45.86 -0.87,-7.86 -1.52,-15.73 -1.96,-23.59 -0.43,-7.87 -0.65,-17.66 -0.65,-29.27l0 -272.39c0,-11.81 -1.41,-21.5 -4.12,-28.99 -2.83,-7.48 -7.29,-14.58 -13.48,-21.1l56.72 0c-6.52,6.33 -11.19,13.33 -14.01,20.91 -2.83,7.59 -4.25,17.37 -4.25,29.18l0 328.61c0,2.98 0.44,6.34 1.31,9.98 0.86,3.65 1.96,7.3 3.26,10.85l-37.27 0z"/>
    <path class="fil0" d="M2787.16 887.21c0,-66.88 15.11,-118.2 45.21,-154 30.09,-35.79 73.23,-53.63 129.5,-53.63 55.97,0 99,17.84 129.1,53.53 29.99,35.7 44.98,87.03 44.98,154.1 0,67.17 -14.99,118.59 -44.98,154.38 -30.1,35.79 -73.13,53.64 -129.1,53.64 -56.27,0 -99.41,-17.94 -129.5,-53.83 -30.1,-35.89 -45.21,-87.22 -45.21,-154.19zm24.12 0.19c0,61.22 13.04,108.23 39.01,140.96 25.97,32.71 63.25,49.02 111.58,49.02 48.36,0 85.53,-16.31 111.27,-48.94 25.75,-32.52 38.69,-79.63 38.69,-141.04 0,-61.5 -12.94,-108.61 -38.69,-141.33 -25.74,-32.81 -62.91,-49.22 -111.27,-49.22 -48.33,0 -85.61,16.5 -111.58,49.5 -25.97,32.91 -39.01,79.94 -39.01,141.05z"/>
    <path class="fil0" d="M2475.08 702.6c-28.02,0 -47.58,4.04 -58.66,12.19 -10.98,8.16 -21.63,24.66 -31.85,49.41l0 -84.04c4.25,2.58 8.59,4.5 13.05,5.65 4.44,1.25 9.88,1.83 16.3,1.83l264.69 0c6.41,0 11.62,-0.58 15.75,-1.64 4.13,-1.14 8.47,-3.06 12.93,-5.84l0 84.04c-10.21,-24.94 -20.75,-41.44 -31.73,-49.5 -10.97,-8.06 -30.32,-12.1 -58.14,-12.1l-41.82 0c-5,0 -9.24,1.64 -12.61,4.8 -3.37,3.17 -5,7.1 -5,11.8l0 317.98c0,11.8 1.41,21.39 4.23,28.88 2.83,7.48 7.5,14.59 14.03,21.11l-60.63 0c6.51,-6.52 11.18,-13.63 14.01,-21.11 2.83,-7.49 4.24,-17.08 4.24,-28.88l0 -317.98c0,-4.7 -1.63,-8.63 -4.99,-11.8 -3.38,-3.16 -7.62,-4.8 -12.61,-4.8l-41.19 0z"/>
    <path class="fil0" d="M2025.55 1093.6l0 -91.63c14.02,26.1 31.73,45.19 53.14,57.28 21.4,12.08 48.03,18.13 79.86,18.13 37.17,0 66.28,-8.83 87.47,-26.38 21.19,-17.66 31.84,-41.84 31.84,-72.64 0,-23.61 -7.83,-43.08 -23.37,-58.33 -15.64,-15.26 -41.39,-28.4 -77.47,-39.53 -6.31,-2.02 -16.4,-4.8 -30.2,-8.35 -35,-9.03 -61.29,-18.52 -78.89,-28.41 -12.06,-7 -21.3,-16.11 -27.6,-27.53 -6.41,-11.42 -9.56,-24.56 -9.56,-39.34 0,-28.31 11.84,-51.62 35.63,-69.86 23.7,-18.32 54.23,-27.43 91.6,-27.43 19.67,0 40.31,3.07 61.72,9.3 21.41,6.24 33.37,9.41 35.87,9.41 4.11,0 7.92,-0.87 11.62,-2.5 3.7,-1.63 7.71,-4.12 11.94,-7.58l0 86.93c-16.29,-27.72 -33.99,-47.68 -53.12,-59.87 -19.12,-12.28 -41.94,-18.42 -68.68,-18.42 -29.56,0 -54,7.39 -73.33,22.16 -19.46,14.78 -29.13,33.4 -29.13,55.65 0,18.33 6.08,32.91 18.15,43.66 12.06,10.75 39.76,22.65 83.01,35.79 61.39,18.33 101.06,36.27 118.99,53.73 17.92,17.36 26.95,41.07 26.95,71.1 0,34.64 -13.15,62.65 -39.46,84.14 -26.39,21.4 -61.16,32.15 -104.53,32.15 -18.9,0 -39.33,-2.6 -61.28,-7.77 -21.95,-5.28 -34.77,-7.88 -38.35,-7.88 -5.55,0 -10.97,1.16 -16.3,3.36 -5.22,2.21 -10.76,5.76 -16.52,10.66z"/>
    <path class="fil0" d="M1911.03 1083.81c-3.81,-4.51 -7.84,-7.77 -12.07,-9.98 -4.24,-2.11 -8.69,-3.16 -13.36,-3.16 -5.11,0 -22.72,4.02 -52.93,12.27 -30.09,8.16 -57.91,12.29 -83.33,12.29 -56.17,0 -99.42,-17.94 -129.52,-53.83 -30.1,-35.89 -45.2,-87.22 -45.2,-154.19 0,-66.88 15.1,-118.2 45.2,-154 30.2,-35.79 73.35,-53.63 129.62,-53.63 26.08,0 51.4,3.45 75.96,10.46 24.45,7 37.37,10.45 38.68,10.45 3.8,0 8.05,-1.15 12.61,-3.45 4.56,-2.3 9.23,-5.56 14.12,-9.98l0 88.66c-18.68,-27.93 -39.11,-47.97 -61.28,-60.36 -22.18,-12.37 -48.9,-18.51 -80.19,-18.51 -48.35,0 -85.62,16.41 -111.6,49.31 -25.97,32.91 -39,79.93 -39,141.24 0,61.41 12.93,108.52 38.9,141.04 25.85,32.63 63.12,48.94 111.7,48.94 40.09,0 73.12,-5.66 98.88,-16.89 25.75,-11.22 38.67,-25.51 38.67,-42.98l0 -99.5c0,-10.07 -2.17,-18.13 -6.62,-23.99 -4.45,-5.95 -13.58,-12.57 -27.27,-19.86l73.67 0c-5.76,3.74 -9.78,8.34 -12.18,13.91 -2.27,5.57 -3.46,13.15 -3.46,22.93l0 172.81z"/>
    <path class="fil0" d="M1407.92 1087.17c0.22,-1.16 0.33,-2.21 0.43,-3.36 0.12,-1.16 0.22,-2.21 0.22,-3.07 0,-1.73 -0.22,-3.36 -0.65,-4.99 -0.43,-1.53 -1.09,-3.07 -1.96,-4.61l-188.19 -308.76c-0.55,-1.06 -1.62,-2.88 -3.16,-5.27 -10.21,-16.89 -18.36,-31.96 -24.33,-45.3 0.87,8.25 1.52,16.31 1.95,24.28 0.43,7.97 0.66,17.56 0.66,28.59l0 272.4c0,11.8 1.4,21.49 4.34,28.98 2.83,7.48 7.5,14.59 13.91,21.11l-57.59 0c6.63,-6.52 11.3,-13.63 14.12,-21.11 2.94,-7.49 4.35,-17.18 4.35,-28.98l0 -320.75c0,-1.73 -1.52,-5.09 -4.56,-10.27 -3.04,-5.18 -7.17,-11.32 -12.39,-18.42l49.66 0c-0.21,1.14 -0.33,2.11 -0.44,3.06 -0.1,0.97 -0.22,1.83 -0.22,2.6 0,1.82 0.33,3.74 0.87,5.56 0.44,1.92 1.09,3.45 1.75,4.8l188.19 308.76c0.65,0.87 1.52,2.5 2.83,4.7 10.43,17.08 18.69,32.34 24.67,45.86 -0.88,-7.86 -1.53,-15.73 -1.96,-23.59 -0.44,-7.87 -0.65,-17.66 -0.65,-29.27l0 -272.39c0,-11.81 -1.42,-21.5 -4.13,-28.99 -2.83,-7.48 -7.29,-14.58 -13.48,-21.1l56.72 0c-6.52,6.33 -11.19,13.33 -14.01,20.91 -2.83,7.59 -4.25,17.37 -4.25,29.18l0 328.61c0,2.98 0.44,6.34 1.31,9.98 0.86,3.65 1.96,7.3 3.26,10.85l-37.27 0z"/>
    <path class="fil0" d="M999.04 737.73l0 299.35c0,11.8 1.4,21.49 4.12,28.98 2.83,7.48 7.5,14.59 14.13,21.11l-60.64 0c6.42,-6.52 11.09,-13.63 13.92,-21.11 2.92,-7.49 4.34,-17.18 4.34,-28.98l0 -299.35c0,-11.81 -1.42,-21.59 -4.34,-29.18 -2.83,-7.58 -7.5,-14.58 -13.92,-20.91l60.64 0c-6.63,6.33 -11.3,13.33 -14.13,20.91 -2.72,7.59 -4.12,17.37 -4.12,29.18z"/>
    <path class="fil0" d="M861.24 687.64c-6.19,8.05 -11.3,15.74 -15.64,23.02 -4.24,7.3 -7.72,14.2 -10.43,20.54l-144.52 340.81c-0.22,0.38 -0.43,0.86 -0.65,1.63 -0.22,0.77 -0.33,1.82 -0.33,3.16l0 5.28c0,0.57 0.11,1.25 0.22,2.12 0.11,0.86 0.22,1.81 0.43,2.97l-31.83 0c0.21,-1.16 0.43,-2.21 0.54,-3.26 0.11,-0.97 0.11,-2.12 0.11,-3.17 0,-2.11 -0.11,-3.84 -0.32,-5.28 -0.23,-1.34 -0.55,-2.5 -0.98,-3.16l-134.96 -341.1c-1.84,-5.08 -4.67,-10.65 -8.37,-16.89 -3.8,-6.14 -9.88,-15.06 -18.36,-26.67l55.42 0c-2.94,3.74 -5.11,7.39 -6.41,10.84 -1.2,3.45 -1.85,7.29 -1.85,11.6 0,3.94 0.65,8.84 2.07,14.5 1.41,5.75 3.69,12.57 6.84,20.43l123.11 309.82 131.15 -309.82c3.05,-6.43 5.33,-12.76 6.84,-19.18 1.64,-6.34 2.4,-11.81 2.4,-16.22 0,-3.94 -0.66,-7.68 -1.85,-11.04 -1.31,-3.35 -3.37,-7 -6.09,-10.93l53.46 0z"/>
    <path class="fil0" d="M383.8 737.73l0 299.35c0,11.8 1.4,21.49 4.12,28.98 2.83,7.48 7.5,14.59 14.13,21.11l-60.64 0c6.42,-6.52 11.09,-13.63 13.92,-21.11 2.93,-7.49 4.34,-17.18 4.34,-28.98l0 -299.35c0,-11.81 -1.41,-21.59 -4.34,-29.18 -2.83,-7.58 -7.5,-14.58 -13.92,-20.91l60.64 0c-6.63,6.33 -11.3,13.33 -14.13,20.91 -2.72,7.59 -4.12,17.37 -4.12,29.18z"/>
    <path class="fil0" d="M18.26 737.73c0,-11.9 -1.42,-21.59 -4.35,-29.18 -2.82,-7.58 -7.49,-14.58 -13.91,-20.91l60.64 0c-6.63,6.33 -11.3,13.33 -14.12,20.91 -2.73,7.59 -4.14,17.28 -4.14,29.18l0 299.35c0,14.01 2.29,23.03 6.85,26.97 4.57,3.92 13.36,5.84 26.4,5.84l59.22 0c34.12,0 57.16,-4.5 68.89,-13.52 11.74,-8.92 22.92,-27.64 33.57,-56.13l0 95.56c-4.66,-2.97 -9.34,-5.17 -14.12,-6.53 -4.78,-1.43 -10.32,-2.1 -16.41,-2.1l-206.78 0c6.42,-6.62 11.09,-13.63 13.91,-21.11 2.93,-7.49 4.35,-17.18 4.35,-28.98l0 -299.35z"/>
   </g>
   <path class="fil0" d="M896.47 1249.73c-2.1,-1.63 -5.14,-2.43 -9.11,-2.43 -5.14,0 -9.44,2.43 -12.9,7.25 -3.46,4.82 -5.18,11.42 -5.18,19.76l0 38.21 -12.02 0 0 -74.96 12.02 0 0 15.44 0.3 0c1.7,-5.27 4.33,-9.4 7.86,-12.34 3.53,-2.98 7.46,-4.45 11.81,-4.45 3.17,0 5.57,0.35 7.22,1.02l0 12.5zm205.36 28.31l-53.03 0c0.2,8.37 2.45,14.84 6.74,19.39 4.3,4.57 10.21,6.85 17.72,6.85 8.47,0 16.23,-2.8 23.31,-8.4l0 11.24c-6.58,4.8 -15.32,7.2 -26.17,7.2 -10.59,0 -18.92,-3.4 -24.98,-10.22 -6.06,-6.82 -9.09,-16.42 -9.09,-28.76 0,-11.7 3.3,-21.2 9.95,-28.56 6.63,-7.35 14.84,-11.02 24.68,-11.02 9.82,0 17.43,3.17 22.81,9.52 5.38,6.34 8.06,15.17 8.06,26.46l0 6.3zm-12.32 -10.2c-0.05,-6.94 -1.72,-12.37 -5.03,-16.24 -3.3,-3.87 -7.88,-5.8 -13.74,-5.8 -5.67,0 -10.5,2.03 -14.46,6.1 -3.95,4.07 -6.41,9.37 -7.33,15.94l40.56 0zm157.93 41.99l0 -12.9c6.54,4.9 13.75,7.35 21.62,7.35 10.54,0 15.8,-3.55 15.8,-10.62 0,-2 -0.46,-3.71 -1.36,-5.1 -0.89,-1.4 -2.12,-2.63 -3.66,-3.7 -1.54,-1.08 -3.34,-2.05 -5.43,-2.9 -2.05,-0.85 -4.3,-1.75 -6.68,-2.67 -3.32,-1.32 -6.23,-2.65 -8.74,-4 -2.52,-1.35 -4.63,-2.85 -6.31,-4.55 -1.68,-1.67 -2.95,-3.6 -3.8,-5.75 -0.85,-2.14 -1.29,-4.67 -1.29,-7.54 0,-3.53 0.81,-6.62 2.41,-9.35 1.62,-2.7 3.79,-4.97 6.47,-6.82 2.67,-1.83 5.72,-3.2 9.18,-4.12 3.44,-0.93 6.99,-1.4 10.64,-1.4 6.49,0 12.29,1.09 17.44,3.29l0 12.15c-5.52,-3.6 -11.85,-5.4 -19.04,-5.4 -2.22,0 -4.25,0.25 -6.06,0.77 -1.81,0.53 -3.35,1.26 -4.66,2.18 -1.28,0.93 -2.28,2.05 -3,3.35 -0.7,1.3 -1.05,2.75 -1.05,4.32 0,1.95 0.35,3.6 1.05,4.93 0.72,1.29 1.75,2.47 3.13,3.5 1.36,1.02 3.03,1.96 4.96,2.79 1.95,0.83 4.18,1.73 6.65,2.7 3.34,1.28 6.32,2.58 8.95,3.92 2.63,1.35 4.88,2.88 6.73,4.55 1.86,1.68 3.29,3.62 4.28,5.83 1,2.19 1.51,4.81 1.51,7.84 0,3.73 -0.83,6.95 -2.45,9.67 -1.63,2.75 -3.84,5.02 -6.57,6.82 -2.73,1.81 -5.88,3.15 -9.44,4.03 -3.55,0.87 -7.31,1.32 -11.22,1.32 -7.71,0 -14.39,-1.49 -20.06,-4.49zm235.07 2.02c-2.83,1.55 -6.59,2.32 -11.22,2.32 -13.14,0 -19.73,-7.32 -19.73,-21.99l0 -44.43 -12.92 0 0 -10.19 12.92 0 0 -18.32 12.02 -3.87 0 22.19 18.93 0 0 10.19 -18.93 0 0 42.36c0,5.05 0.85,8.65 2.58,10.79 1.7,2.15 4.53,3.22 8.51,3.22 3.02,0 5.64,-0.82 7.84,-2.5l0 10.23zm201.78 0.67l-12.01 0 0 -11.72 -0.3 0c-5.24,9.03 -12.93,13.52 -23.12,13.52 -7.48,0 -13.34,-1.97 -17.57,-5.94 -4.24,-3.95 -6.34,-9.2 -6.34,-15.75 0,-14.02 8.26,-22.19 24.79,-24.49l22.54 -3.15c0,-12.79 -5.17,-19.19 -15.48,-19.19 -9.04,0 -17.2,3.1 -24.48,9.3l0 -12.3c7.38,-4.69 15.87,-7.04 25.5,-7.04 17.66,0 26.47,9.31 26.47,27.98l0 48.78zm-12.01 -37.93l-18.13 2.5c-5.58,0.77 -9.8,2.17 -12.62,4.15 -2.83,2 -4.27,5.49 -4.27,10.54 0,3.67 1.32,6.67 3.94,9 2.6,2.32 6.11,3.5 10.45,3.5 5.98,0 10.9,-2.1 14.79,-6.28 3.88,-4.19 5.84,-9.5 5.84,-15.91l0 -7.5zm227.32 37.93l-12.03 0 0 -11.87 -0.29 0c-4.98,9.13 -12.72,13.67 -23.19,13.67 -17.91,0 -26.84,-10.65 -26.84,-31.94l0 -44.82 12.02 0 0 42.95c0,15.84 6.06,23.77 18.17,23.77 5.87,0 10.68,-2.18 14.46,-6.5 3.78,-4.33 5.67,-9.97 5.67,-16.97l0 -43.25 12.03 0 0 74.96zm195.49 -62.79c-2.1,-1.63 -5.14,-2.43 -9.11,-2.43 -5.14,0 -9.44,2.43 -12.9,7.25 -3.46,4.82 -5.18,11.42 -5.18,19.76l0 38.21 -12.02 0 0 -74.96 12.02 0 0 15.44 0.3 0c1.7,-5.27 4.33,-9.4 7.86,-12.34 3.54,-2.98 7.47,-4.45 11.82,-4.45 3.16,0 5.56,0.35 7.21,1.02l0 12.5zm198.75 62.79l-12.01 0 0 -11.72 -0.3 0c-5.24,9.03 -12.93,13.52 -23.12,13.52 -7.48,0 -13.34,-1.97 -17.57,-5.94 -4.24,-3.95 -6.34,-9.2 -6.34,-15.75 0,-14.02 8.26,-22.19 24.79,-24.49l22.54 -3.15c0,-12.79 -5.16,-19.19 -15.48,-19.19 -9.04,0 -17.2,3.1 -24.49,9.3l0 -12.3c7.39,-4.69 15.88,-7.04 25.51,-7.04 17.66,0 26.47,9.31 26.47,27.98l0 48.78zm-12.01 -37.93l-18.14 2.5c-5.58,0.77 -9.79,2.17 -12.62,4.15 -2.82,2 -4.26,5.49 -4.26,10.54 0,3.67 1.31,6.67 3.94,9 2.6,2.32 6.11,3.5 10.45,3.5 5.98,0 10.9,-2.1 14.79,-6.28 3.88,-4.19 5.84,-9.5 5.84,-15.91l0 -7.5zm228.96 37.93l-12 0 0 -42.81c0,-15.93 -5.85,-23.91 -17.49,-23.91 -6.01,0 -10.99,2.25 -14.92,6.77 -3.93,4.52 -5.91,10.25 -5.91,17.14l0 42.81 -12.02 0 0 -74.96 12.02 0 0 12.44 0.29 0c5.67,-9.5 13.89,-14.24 24.65,-14.24 8.21,0 14.5,2.64 18.85,7.94 4.36,5.3 6.53,12.94 6.53,22.97l0 45.85zm189.5 -0.67c-2.84,1.55 -6.59,2.32 -11.22,2.32 -13.14,0 -19.73,-7.32 -19.73,-21.99l0 -44.43 -12.92 0 0 -10.19 12.92 0 0 -18.32 12.02 -3.87 0 22.19 18.93 0 0 10.19 -18.93 0 0 42.36c0,5.05 0.84,8.65 2.58,10.79 1.7,2.15 4.53,3.22 8.51,3.22 3.02,0 5.64,-0.82 7.84,-2.5l0 10.23z"/>
   <g>
    <path class="fil1" d="M1778.11 23.01c9.37,9.94 18.09,20.42 26.13,31.4 86.87,-24.91 182.24,-39.59 272.57,-26.26 54.25,8.01 106.66,19.99 160.97,26.73 -57.99,-14.99 -116.71,-30.1 -175.36,-41.39 -45.78,-8.81 -91.42,-14.8 -138.19,-13.24 -14.79,0.49 -29.52,1.71 -44.19,3.56 -34.44,4.35 -68.29,10.94 -101.93,19.2z"/>
    <path class="fil1" d="M1319.78 19.21c67.89,7.61 130.32,29.8 187.98,66.66 19.42,12.42 37.11,25.95 55.21,40.03 3.45,2.69 20.34,16.56 25.17,15.32 2.99,-0.36 14.98,-6.32 18.02,-7.74 13.61,-6.39 27.17,-12.82 40.87,-19.03 42.71,-19.37 86.26,-36.89 130.91,-51.62 -7.53,-11.58 -15.59,-22.84 -24.2,-33.7 -61.04,17.02 -121.37,38 -180.73,59.83l-0.91 0.34 -0.78 -0.58c-73.6,-54.63 -160.76,-73.86 -251.54,-69.51z"/>
   </g>
  </g>
 </g>
</svg>
